<?xml version="1.0" encoding="UTF-8" standalone="no"?>
<!DOCTYPE svg PUBLIC "-//W3C//DTD SVG 1.1//EN" "http://www.w3.org/Graphics/SVG/1.1/DTD/svg11.dtd">
<!-- Created with Vectornator (http://vectornator.io/) -->
<svg height="100%" stroke-miterlimit="10" style="fill-rule:nonzero;clip-rule:evenodd;stroke-linecap:round;stroke-linejoin:round;" version="1.1" viewBox="0 0 131.012 119.723" width="100%" xml:space="preserve" xmlns="http://www.w3.org/2000/svg" xmlns:vectornator="http://vectornator.io" xmlns:xlink="http://www.w3.org/1999/xlink">
<defs/>
<g id="Untitled" vectornator:layerName="Untitled">
<path d="M103.969 29.4373C106.081 18.6846 104.9 10.524 99.9062 7.28102C98.2417 6.20004 96.246 5.727 94 5.81227C81.8715 6.27272 62.3017 22.9723 46.3125 47.5935C27.3624 76.7742 20.628 106.019 31.2812 112.937C36.3382 116.221 44.3964 113.893 53.5 107.406" fill="none" opacity="1" stroke="#000000" stroke-linecap="round" stroke-linejoin="miter" stroke-width="5"/>
<path d="M113.688 77.156C122.682 73.6668 128.213 68.891 128.5 63.406C129.165 50.7209 101.559 38.977 66.8125 37.156C63.555 36.9853 60.3519 36.8955 57.2188 36.906C26.9315 37.0079 3.28997 45.3164 2.6875 56.8123C2.40061 62.2865 7.38798 67.5947 15.9375 71.9998" fill="none" opacity="1" stroke="#000000" stroke-linecap="round" stroke-linejoin="miter" stroke-width="5"/>
<path d="M57 10.531C50.8461 5.42513 45.0746 2.68324 40.4375 3.03102C39.2029 3.12362 38.0611 3.42788 37 3.96852C25.6819 9.73536 29.2976 39.5606 45.0938 70.5623C60.8899 101.564 82.8694 122.017 94.1875 116.25C105.072 110.704 102.134 82.912 87.8438 53.2185" fill="none" opacity="1" stroke="#000000" stroke-linecap="round" stroke-linejoin="miter" stroke-width="5"/>
<path d="M73.5 61C73.5 65.1421 70.1421 68.5 66 68.5C61.8579 68.5 58.5 65.1421 58.5 61C58.5 56.8579 61.8579 53.5 66 53.5C70.1421 53.5 73.5 56.8579 73.5 61Z" fill="#000000" fill-rule="nonzero" opacity="1" stroke="none"/>
</g>
</svg>
